<svg width="26" height="25" viewBox="0 0 26 25" fill="none" xmlns="http://www.w3.org/2000/svg">
<path d="M21 24.5H5C4.20435 24.5 3.44129 24.1839 2.87868 23.6213C2.31607 23.0587 2 22.2956 2 21.5V11.5C2 11.2348 2.10536 10.9804 2.29289 10.7929C2.48043 10.6054 2.73478 10.5 3 10.5C3.26522 10.5 3.51957 10.6054 3.70711 10.7929C3.89464 10.9804 4 11.2348 4 11.5V21.5C4 21.7652 4.10536 22.0196 4.29289 22.2071C4.48043 22.3946 4.73478 22.5 5 22.5H21C21.2652 22.5 21.5196 22.3946 21.7071 22.2071C21.8946 22.0196 22 21.7652 22 21.5V11.5C22 11.2348 22.1054 10.9804 22.2929 10.7929C22.4804 10.6054 22.7348 10.5 23 10.5C23.2652 10.5 23.5196 10.6054 23.7071 10.7929C23.8946 10.9804 24 11.2348 24 11.5V21.5C24 22.2956 23.6839 23.0587 23.1213 23.6213C22.5587 24.1839 21.7956 24.5 21 24.5Z" fill="white"/>
<path d="M12 24.5H7C6.73478 24.5 6.48043 24.3946 6.29289 24.2071C6.10536 24.0196 6 23.7652 6 23.5V17.5C6 16.7044 6.31607 15.9413 6.87868 15.3787C7.44129 14.8161 8.20435 14.5 9 14.5H10C10.7956 14.5 11.5587 14.8161 12.1213 15.3787C12.6839 15.9413 13 16.7044 13 17.5V23.5C13 23.7652 12.8946 24.0196 12.7071 24.2071C12.5196 24.3946 12.2652 24.5 12 24.5ZM8 22.5H11V17.5C11 17.2348 10.8946 16.9804 10.7071 16.7929C10.5196 16.6054 10.2652 16.5 10 16.5H9C8.73478 16.5 8.48043 16.6054 8.29289 16.7929C8.10536 16.9804 8 17.2348 8 17.5V22.5Z" fill="white"/>
<path d="M22 12.5C20.9391 12.5 19.9217 12.0786 19.1716 11.3284C18.4214 10.5783 18 9.56087 18 8.5C18 8.23478 18.1054 7.98043 18.2929 7.79289C18.4804 7.60536 18.7348 7.5 19 7.5C19.2652 7.5 19.5196 7.60536 19.7071 7.79289C19.8946 7.98043 20 8.23478 20 8.5C20 9.03043 20.2107 9.53914 20.5858 9.91421C20.9609 10.2893 21.4696 10.5 22 10.5C22.5304 10.5 23.0391 10.2893 23.4142 9.91421C23.7893 9.53914 24 9.03043 24 8.5V7.74L21.38 2.5H4.62L2 7.74V8.5C2 9.03043 2.21071 9.53914 2.58579 9.91421C2.96086 10.2893 3.46957 10.5 4 10.5C4.53043 10.5 5.03914 10.2893 5.41421 9.91421C5.78929 9.53914 6 9.03043 6 8.5C6 8.23478 6.10536 7.98043 6.29289 7.79289C6.48043 7.60536 6.73478 7.5 7 7.5C7.26522 7.5 7.51957 7.60536 7.70711 7.79289C7.89464 7.98043 8 8.23478 8 8.5C8 9.56087 7.57857 10.5783 6.82843 11.3284C6.07828 12.0786 5.06087 12.5 4 12.5C2.93913 12.5 1.92172 12.0786 1.17157 11.3284C0.421427 10.5783 0 9.56087 0 8.5V7.5C0.000938583 7.34346 0.038616 7.18932 0.11 7.05L3.11 1.05C3.1931 0.885086 3.32024 0.746402 3.47733 0.649323C3.63443 0.552244 3.81533 0.50056 4 0.5H22C22.1847 0.50056 22.3656 0.552244 22.5227 0.649323C22.6798 0.746402 22.8069 0.885086 22.89 1.05L25.89 7.05C25.9614 7.18932 25.9991 7.34346 26 7.5V8.5C26 9.56087 25.5786 10.5783 24.8284 11.3284C24.0783 12.0786 23.0609 12.5 22 12.5Z" fill="white"/>
<path d="M10 12.5C8.93913 12.5 7.92172 12.0786 7.17157 11.3284C6.42143 10.5783 6 9.56087 6 8.5C6 8.23478 6.10536 7.98043 6.29289 7.79289C6.48043 7.60536 6.73478 7.5 7 7.5C7.26522 7.5 7.51957 7.60536 7.70711 7.79289C7.89464 7.98043 8 8.23478 8 8.5C8 9.03043 8.21071 9.53914 8.58579 9.91421C8.96086 10.2893 9.46957 10.5 10 10.5C10.5304 10.5 11.0391 10.2893 11.4142 9.91421C11.7893 9.53914 12 9.03043 12 8.5C12 8.23478 12.1054 7.98043 12.2929 7.79289C12.4804 7.60536 12.7348 7.5 13 7.5C13.2652 7.5 13.5196 7.60536 13.7071 7.79289C13.8946 7.98043 14 8.23478 14 8.5C14 9.56087 13.5786 10.5783 12.8284 11.3284C12.0783 12.0786 11.0609 12.5 10 12.5Z" fill="white"/>
<path d="M16 12.5C14.9391 12.5 13.9217 12.0786 13.1716 11.3284C12.4214 10.5783 12 9.56087 12 8.5C12 8.23478 12.1054 7.98043 12.2929 7.79289C12.4804 7.60536 12.7348 7.5 13 7.5C13.2652 7.5 13.5196 7.60536 13.7071 7.79289C13.8946 7.98043 14 8.23478 14 8.5C14 9.03043 14.2107 9.53914 14.5858 9.91421C14.9609 10.2893 15.4696 10.5 16 10.5C16.5304 10.5 17.0391 10.2893 17.4142 9.91421C17.7893 9.53914 18 9.03043 18 8.5C18 8.23478 18.1054 7.98043 18.2929 7.79289C18.4804 7.60536 18.7348 7.5 19 7.5C19.2652 7.5 19.5196 7.60536 19.7071 7.79289C19.8946 7.98043 20 8.23478 20 8.5C20 9.56087 19.5786 10.5783 18.8284 11.3284C18.0783 12.0786 17.0609 12.5 16 12.5Z" fill="white"/>
<path d="M19 17.5H16C15.7348 17.5 15.4804 17.3946 15.2929 17.2071C15.1054 17.0196 15 16.7652 15 16.5C15 16.2348 15.1054 15.9804 15.2929 15.7929C15.4804 15.6054 15.7348 15.5 16 15.5H19C19.2652 15.5 19.5196 15.6054 19.7071 15.7929C19.8946 15.9804 20 16.2348 20 16.5C20 16.7652 19.8946 17.0196 19.7071 17.2071C19.5196 17.3946 19.2652 17.5 19 17.5Z" fill="white"/>
</svg>
