<svg width="222" height="222" viewBox="0 0 222 222" fill="none" xmlns="http://www.w3.org/2000/svg">
<path d="M48.5625 173.438C36.7687 173.438 27.75 164.419 27.75 152.625V69.375C27.75 57.5812 36.7687 48.5625 48.5625 48.5625C60.3563 48.5625 69.375 57.5812 69.375 69.375V152.625C69.375 164.419 60.3563 173.438 48.5625 173.438Z" fill="white"/>
<path d="M173.438 173.438C161.644 173.438 152.625 164.419 152.625 152.625V69.375C152.625 57.5812 161.644 48.5625 173.438 48.5625C185.231 48.5625 194.25 57.5812 194.25 69.375V152.625C194.25 164.419 185.231 173.438 173.438 173.438Z" fill="white"/>
<path d="M159.562 117.938H62.4375C58.275 117.938 55.5 115.163 55.5 111C55.5 106.837 58.275 104.062 62.4375 104.062H159.562C163.725 104.062 166.5 106.837 166.5 111C166.5 115.163 163.725 117.938 159.562 117.938Z" fill="white"/>
<path d="M13.875 70.7625C5.55 73.5375 0 81.1687 0 90.1875V131.812C0 140.831 5.55 148.462 13.875 151.237V70.7625Z" fill="white"/>
<path d="M208.125 70.7625V151.237C216.45 148.462 222 140.831 222 131.812V90.1875C222 81.1687 216.45 73.5375 208.125 70.7625Z" fill="white"/>
</svg>
